Coordinates
version=1
nRows=24
nColumns=38
inDegrees=no

Units are S.I. units (second, meters, Newtons, ...)
If the header above contains a line with 'inDegrees', this indicates whether rotational values are in degrees (yes) or radians (no).

endheader
time	pelvis_tilt	pelvis_list	pelvis_rotation	pelvis_tx	pelvis_ty	pelvis_tz	hip_flexion_r	hip_adduction_r	hip_rotation_r	knee_angle_r	ankle_angle_r	subtalar_angle_r	mtp_angle_r	hip_flexion_l	hip_adduction_l	hip_rotation_l	knee_angle_l	ankle_angle_l	subtalar_angle_l	mtp_angle_l	lumbar_extension	lumbar_bending	lumbar_rotation	arm_flex_r	arm_add_r	arm_rot_r	elbow_flex_r	pro_sup_r	wrist_flex_r	wrist_dev_r	arm_flex_l	arm_add_l	arm_rot_l	elbow_flex_l	pro_sup_l	wrist_flex_l	wrist_dev_l
0	0.535283	1.35385	1.20267	0.700414	0.675416	0.996233	0.757314	0.0292656	-0.108879	0.785087	0.0564631	0	0	0.0976897	-0.224761	-0.10583	0.863781	-0.0302746	0	0	0.245256	0.196784	-0.314983	-0.209406	-0.297685	1.39953	0.197261	0.408152	0	0	-0.042653	-0.295368	0.453109	0.466231	1.36563	0	0
0.01	0.547054	1.35863	1.18158	0.702401	0.687891	0.997474	0.743734	0.0380429	-0.110953	0.788119	0.0527879	0	0	0.107638	-0.221143	-0.0912644	0.903246	-0.0522501	0	0	0.233896	0.201364	-0.302909	-0.195732	-0.297116	1.41361	0.197683	0.405766	0	0	-0.0499866	-0.292081	0.449075	0.468353	1.36469	0	0
0.02	0.560112	1.35976	1.16256	0.704288	0.70072	0.998613	0.730999	0.0459634	-0.118994	0.78886	0.0534651	0	0	0.124329	-0.219591	-0.0755036	0.945288	-0.0749223	0	0	0.228622	0.205795	-0.294844	-0.183168	-0.296241	1.42671	0.197488	0.406739	0	0	-0.0585334	-0.288707	0.449295	0.468636	1.36191	0	0
0.03	0.573161	1.3593	1.14494	0.706102	0.71326	0.999694	0.718638	0.0541374	-0.126411	0.788278	0.05789	0	0	0.1456	-0.21813	-0.0582237	0.990188	-0.0946234	0	0	0.224679	0.210133	-0.286993	-0.170044	-0.295177	1.43489	0.197483	0.407639	0	0	-0.0657868	-0.285626	0.45248	0.468702	1.35941	0	0
0.04	0.578955	1.35756	1.13634	0.707576	0.725253	1.0008	0.708025	0.060401	-0.131512	0.788112	0.0640043	0	0	0.172017	-0.213307	-0.0361176	1.03718	-0.114463	0	0	0.222178	0.213168	-0.280436	-0.155684	-0.294324	1.43792	0.198011	0.406415	0	0	-0.0710019	-0.281866	0.457878	0.466299	1.35713	0	0
0.05	0.584593	1.3562	1.12821	0.70883	0.736984	1.00203	0.696389	0.0663102	-0.133437	0.788063	0.0725432	0	0	0.199761	-0.207293	-0.0136654	1.08442	-0.138406	0	0	0.218935	0.215695	-0.272892	-0.140547	-0.293943	1.43663	0.199645	0.404057	0	0	-0.074552	-0.278191	0.465949	0.463077	1.35491	0	0
0.06	0.58835	1.35623	1.12149	0.710036	0.748611	1.00345	0.682166	0.0720371	-0.130603	0.786504	0.0821216	0	0	0.227122	-0.200524	0.00544625	1.12975	-0.164694	0	0	0.214494	0.2169	-0.263761	-0.125161	-0.293655	1.4306	0.202368	0.400485	0	0	-0.0771609	-0.274882	0.476203	0.459534	1.35552	0	0
0.07	0.5874	1.35749	1.1189	0.711204	0.760171	1.00502	0.666149	0.076845	-0.124749	0.783784	0.0925437	0	0	0.254056	-0.193003	0.0200082	1.17164	-0.191004	0	0	0.20923	0.216347	-0.253083	-0.109415	-0.293414	1.42146	0.205795	0.397771	0	0	-0.0789232	-0.271627	0.487434	0.455377	1.35762	0	0
0.08	0.582271	1.36014	1.12006	0.71233	0.771697	1.00675	0.648822	0.0803087	-0.118422	0.78082	0.103095	0	0	0.279646	-0.184652	0.0308263	1.20909	-0.212685	0	0	0.2029	0.213984	-0.241079	-0.0932904	-0.29346	1.40977	0.210212	0.396773	0	0	-0.0802003	-0.268583	0.498877	0.451012	1.36027	0	0
0.09	0.573398	1.36357	1.1247	0.713429	0.783159	1.00856	0.630962	0.083014	-0.112005	0.776922	0.112746	0	0	0.304146	-0.175772	0.038668	1.242	-0.226424	0	0	0.196206	0.21006	-0.228283	-0.0768044	-0.293874	1.39572	0.215633	0.398234	0	0	-0.0812449	-0.265918	0.510568	0.446511	1.36397	0	0
0.1	0.561153	1.36714	1.13234	0.714527	0.794563	1.01037	0.613281	0.0855296	-0.105752	0.771827	0.120749	0	0	0.328154	-0.167085	0.0433725	1.27108	-0.22836	0	0	0.189938	0.204938	-0.214922	-0.0601026	-0.294907	1.37989	0.222247	0.403183	0	0	-0.0826751	-0.263778	0.521871	0.442562	1.36857	0	0
0.11	0.544997	1.37039	1.14261	0.71567	0.806032	1.01212	0.596431	0.0880839	-0.100144	0.766607	0.128108	0	0	0.351817	-0.159573	0.043114	1.29664	-0.217378	0	0	0.184802	0.198966	-0.200025	-0.0445022	-0.297517	1.35611	0.231967	0.413437	0	0	-0.0850767	-0.262172	0.532044	0.43963	1.37327	0	0
0.12	0.527512	1.3733	1.15388	0.71679	0.817464	1.0138	0.579371	0.0908148	-0.094551	0.76005	0.135068	0	0	0.375714	-0.153404	0.0393699	1.31929	-0.196328	0	0	0.180473	0.192779	-0.185033	-0.0298365	-0.302097	1.32471	0.245589	0.432985	0	0	-0.0882903	-0.260527	0.539703	0.43737	1.3774	0	0
0.13	0.511487	1.37484	1.16418	0.717926	0.828731	1.01522	0.563283	0.0939821	-0.089567	0.7533	0.142539	0	0	0.401556	-0.149347	0.0339646	1.34001	-0.168535	0	0	0.175801	0.187649	-0.164846	-0.0327847	-0.312976	1.16484	0.278822	0.565408	0	0	-0.087814	-0.25942	0.552685	0.435389	1.37943	0	0
0.14	0.494835	1.37649	1.17565	0.719049	0.839941	1.01665	0.546829	0.0957779	-0.0858467	0.746218	0.148794	0	0	0.427412	-0.146189	0.0265545	1.35678	-0.142436	0	0	0.173237	0.181362	-0.153257	-0.0189466	-0.321053	1.13616	0.299857	0.585892	0	0	-0.0936675	-0.258178	0.553784	0.434969	1.38216	0	0
0.15	0.479995	1.37836	1.18528	0.720125	0.851112	1.01802	0.529082	0.0971147	-0.0826382	0.737962	0.156097	0	0	0.452509	-0.144451	0.0172749	1.37038	-0.11095	0	0	0.169945	0.175674	-0.141021	-0.00931808	-0.333014	1.08748	0.330219	0.622068	0	0	-0.0991812	-0.256077	0.551457	0.434161	1.38527	0	0
0.16	0.464957	1.38081	1.19471	0.72114	0.862248	1.01934	0.510014	0.0977874	-0.0797425	0.728877	0.163864	0	0	0.476591	-0.143778	0.00596661	1.38026	-0.0815682	0	0	0.165285	0.170253	-0.126926	-0.00700584	-0.346224	1.0073	0.367507	0.686678	0	0	-0.10368	-0.253218	0.546775	0.432803	1.38863	0	0
0.17	0.449541	1.38449	1.20376	0.72217	0.873471	1.0207	0.488786	0.0980343	-0.076547	0.718396	0.171427	0	0	0.49876	-0.144518	-0.00793338	1.38578	-0.0587554	0	0	0.160373	0.16424	-0.114915	0.000504501	-0.35848	0.963252	0.400173	0.722264	0	0	-0.109825	-0.250597	0.541518	0.431078	1.38881	0	0
0.18	0.437501	1.38846	1.20935	0.723251	0.884707	1.022	0.466375	0.0989469	-0.0728529	0.706164	0.178184	0	0	0.520121	-0.148068	-0.0239493	1.38724	-0.042816	0	0	0.155015	0.158813	-0.102983	0.00722139	-0.371044	0.922913	0.433905	0.754368	0	0	-0.115836	-0.247812	0.53565	0.428564	1.3892	0	0
0.19	0.428868	1.39402	1.21027	0.724409	0.895864	1.02333	0.442342	0.100529	-0.0680505	0.693784	0.184598	0	0	0.538397	-0.154244	-0.0427178	1.38391	-0.0313999	0	0	0.146788	0.154011	-0.0885621	0.00987974	-0.384094	0.87027	0.471698	0.794079	0	0	-0.12015	-0.244595	0.52947	0.425474	1.38983	0	0
0.2	0.417555	1.40032	1.21274	0.725629	0.906989	1.02458	0.418338	0.101802	-0.062324	0.682374	0.190436	0	0	0.554281	-0.16182	-0.0636224	1.37525	-0.0236939	0	0	0.138386	0.148461	-0.0744581	0.0159115	-0.395918	0.834802	0.50509	0.822652	0	0	-0.124748	-0.241834	0.524334	0.422475	1.38863	0	0
0.21	0.409218	1.40702	1.21271	0.726793	0.918279	1.02576	0.393362	0.102977	-0.0574903	0.670511	0.196366	0	0	0.567774	-0.171291	-0.0858107	1.36172	-0.0162287	0	0	0.1295	0.143321	-0.06051	0.0194434	-0.407687	0.795694	0.539925	0.850536	0	0	-0.128658	-0.238793	0.519812	0.418557	1.38739	0	0
0.22	0.403728	1.41596	1.20856	0.727949	0.929545	1.02698	0.366102	0.103679	-0.0507687	0.659108	0.202642	0	0	0.576285	-0.182248	-0.111183	1.34369	-0.00706808	0	0	0.117227	0.138198	-0.043619	0.0195496	-0.418751	0.747805	0.57632	0.8836	0	0	-0.13032	-0.235874	0.518065	0.414029	1.38799	0	0
0.23	0.396586	1.42411	1.20662	0.729008	0.940841	1.02804	0.34006	0.103156	-0.0461026	0.648502	0.208251	0	0	0.583932	-0.192781	-0.136279	1.32192	0.00248343	0	0	0.106771	0.132725	-0.0283833	0.0220624	-0.428527	0.711988	0.608014	0.910813	0	0	-0.132158	-0.233161	0.518314	0.408484	1.3895	0	0
